<svg id="Layer_1" data-name="Layer 1" xmlns="http://www.w3.org/2000/svg" viewBox="0 0 1024 578"><path d="M762.34,93.09c-115.62,14.42-206.14-24.87-207.44-19-1.34,6.07,87.69,48.47,203.06,52.37,48.76,1.64,200.78-30.13,222.73.45,5.15,7.19,5.06,18.14,1.71,25-3.19,6.53-10.07,10.84-20.5,13.44-40.28,10-147.24,4.08-170.26,3.06-24.81-1.09-58.69-1.47-60,5.56-1.24,6.7,27.26,20.1,56.38,26.63,69.35,15.53,149.32-27.93,169.07-3.62,7.15,8.81,4.7,23,2.63,29.38A37.25,37.25,0,0,1,946.63,244c-28.83,21.76-93-6.51-138,.45-13.71,2.12-22.51,5.19-23.31,10-1.21,7.35,16.55,17.41,31.6,22.54,51.32,17.49,112.4-20.7,121.78-7.21,1.87,2.7,1.51,6.78-1.28,13.58-13.42,32.61-51.12,51.15-51.26,50.91s17.26-6,38.16-24.56c39.39-35.05,38.26-71.15,63.64-122.48,19.6-39.64,41-65.67,29.41-91.46-3-6.56-8.12-13.17-17.13-19.39C950,41.72,854.6,81.59,762.34,93.09Z" fill="#09f"/><path d="M94.22,324.51a11.64,11.64,0,0,1-7.53-2.77c-2.52-2.3-4.09-6.66-3.16-14.59,2.23-19.24,13.1-34.47,17.06-39a367.59,367.59,0,0,1,44.81-43.36c18.54-15,38.91-32.63,59.41-45.86,5.22-3.38,20.44-10.31,28.42-13.62a38.78,38.78,0,0,1,6.94-1.91c7.05-1.2,11.83.11,13.61,1.67,1.55,1.36,3.34,6.3,3.34,13.38,0,5.65-.74,9.34,1.67,12.9,2.06,3,6.21,5.71,9.32,4.54,2.08-.79,3.65-3.3,4.29-8.6,1.05-8.61-3.44-17.21-9.56-22.46A30.2,30.2,0,0,0,248,158.12c-11.93-2.12-21.69,2-27,4.53-28,13.46-53.09,31.44-82.59,54.89-6.76,5.37-19.66,16.45-29.77,24.85-2.48,2.06-24.5,22.36-34.11,44.82a56.63,56.63,0,0,0-4.92,23.71c.21,12.43,4.5,21.17,7.52,24.57,8.21,9.28,22.87,12.75,38.44,8.39q-10.66-9.69-21.38-19.37Z" fill="#1b1084"/><path d="M83,63.74c1.83-4.45,6.77-10.36,16.41-13.87,6-2.2,24.12-7,32.74,3.34,3.86,4.66,4.56,11.51,3.47,18.62a35.41,35.41,0,0,1-3.8,11c-5.64,10-22.85,31.82-31.94,50.42-7.32,15-9.11,27.09-5.25,37,2,5,4.5,8,6.92,9.79,6.94,5.19,17.62,5.08,31.74-.4,13.06-5.08,30.54-19.67,44.81-49.15,4-8.28,15.66-33.07,23.42-50,1.76-3.85,7-15.21,18.8-20.52,10.62-4.79,24.92-3.93,27.46,1.74,1.46,3.24-1.4,7.08-4.33,11.85-4.18,6.77-5.56,12.61-9.25,19.66-4.07,7.75-10.11,23.88-15,37.86C209,159.73,196.74,196,193.39,211.46c-.93,4.3-18.46,85.47-46.83,114.77a70.18,70.18,0,0,1-21.16,14.86c-8.47,3.77-16.4,5-21,4.78a43.37,43.37,0,0,1-26.91-11q5.07-6.36,10.11-12.72a51.15,51.15,0,0,0,14.16-3.47c16.85-6.85,36.5-35.19,48.86-87.31A426.3,426.3,0,0,0,159,184.28c-16.77,23-39.86,41.43-65.67,44-13.2,1.3-23.45-2.27-27.47-4.85-8.73-5.59-13.81-15.19-16.16-23.92-6.65-24.73,10-65,50-119.86,1-1.35,9.94-13.67,6.94-17.06-3.5-4-21.39,7.82-24,4.33-.44-.58-.36-1.55.3-3.16Z" fill="#170e77"/><path d="M449.31,276.54c6.35-1.53,4.95-67.08-30.24-129.71-14.3-25.43-30.45-45-47.51-60.11C292.7,17,181.45,25.79,180.57,31.83c-.78,5.37,89.76,5.62,164.81,69.76,82.64,70.6,95.92,176.89,103.93,175Z" fill="#09f"/><path d="M655.39,207.29c6.24-2.71,8.07-11.55,8.29-16.29.17-4.06-.65-11.68-6.41-16.56s-14.69-5-29.12-.8c-22.6,6.63-42.57,19.47-50.73,25.85-15.6,12.22-33.42,30.61-43,51.59a54,54,0,0,0-5.08,21.1c-.4,11.89,2.17,24.55,10.91,32,4.83,4.13,13.67,8,28.12,6.79,13.39-1.15,39-14.41,63.78-44.68a257.7,257.7,0,0,0,19.59-27.39,130.4,130.4,0,0,0-3.88,18.42c-2.69,20.05-.6,32.73,4.33,37.54a20.81,20.81,0,0,0,9.57,5.12c25.06,6.39,56.49-30.31,69.21-58.27,4.57-10,6.17-16.81,3.48-19.22-2.29-2-7.2-.52-10.16,1.06-7.59,4-9.17,12-13.09,19.5-8.8,16.83-27.76,27.56-33.38,24-2.18-1.36-2.74-5.91-1.52-14,2.51-16.37,9.85-30.1,14.07-36.77,4.47-7.07,10-14.92,9.08-25.1-.51-5.38-2.29-9.55-5.62-11.49a10.81,10.81,0,0,0-7.52-1c-13.1,2.28-21.84,21.09-33,36.84a151.25,151.25,0,0,1-19.06,22c-26.92,25.81-63.71,42.71-71.1,34.58-1.28-1.4-1.56-3.42-1.29-6.14,2.87-29.25,58.57-67.16,83.7-59.14,1.68.54,5.82,2.1,9.81.36Z" fill="#1e0d82"/><path d="M459.46,294.64c-1.64-.63-15.73,68.56-72.39,97.15-40.46,20.41-84.09,11.55-154.15-5.17-48.3-11.53-80.41-18.62-118.28-7.76C72.07,391.09,36.86,421.91,8,466.12c9.39-4.16,19.69-5.49,29.08-2.26C55,470,67.92,492.15,64.55,519.12c6.67-41.34,22.75-74,50.09-92.75,35.88-24.61,79.48-17.64,123.13-10C303.05,427.74,345,434,380,417c66.23-32.18,81.36-121.65,79.5-122.36Z" fill="#09f"/><path d="M938.72,303.89C937,302,911.66,326.78,876.8,346.4c-82.9,46.66-171.64,49.73-227.64,41.84-40.68-5.74-67.65-17.79-87.58-32.64a161.69,161.69,0,0,1-29.08-28.12c-38.65-47.76-37.69-101.34-53-176.77C469,99,454.22,65.06,434.26,46,391.34,5.06,329.27,5.77,304.54,8.3c-9.78,1-28,3.49-28.25,8-.24,4.19,15.38,8.06,25.36,10.87,30.43,8.53,72,26.37,102.23,56.36,36.5,36.2,47.38,78.91,53.64,107.29,19.06,86.33,12.77,157.29,46.54,197.13,64.55,76.15,225.78,68.2,334.48,6.14,63.28-36.12,102.76-87.35,100.18-90.16Z" fill="#09f"/><path d="M330.61,212.14c6.24-2.71,8.07-11.56,8.28-16.29.19-4.06-.64-11.68-6.41-16.57s-14.69-5-29.11-.79c-22.6,6.62-42.57,19.47-50.73,25.85-15.6,12.21-33.44,30.61-43,51.59a54,54,0,0,0-5.08,21.1c-.4,11.89,2.17,24.54,10.91,32,4.83,4.13,13.67,8,28.11,6.78,13.4-1.14,39-14.4,63.79-44.67A258.73,258.73,0,0,0,327,243.77a130.4,130.4,0,0,0-3.88,18.42c-2.69,20.05-.6,32.73,4.33,37.54a20.81,20.81,0,0,0,9.57,5.12c25.06,6.39,56.5-30.31,69.21-58.27,4.56-10,6.17-16.82,3.47-19.23-2.28-2-7.19-.51-10.15,1.07-7.59,4-9.17,12-13.09,19.49-8.8,16.82-27.76,27.57-33.38,24-2.18-1.36-2.74-5.91-1.52-14,2.49-16.38,9.84-30.1,14.07-36.78,4.47-7.07,10.05-14.92,9.08-25.1-.51-5.37-2.29-9.54-5.6-11.48a10.83,10.83,0,0,0-7.53-1c-13.1,2.27-21.84,21.09-33,36.84a150.76,150.76,0,0,1-19.07,22c-26.92,25.82-63.7,42.72-71.1,34.58-1.28-1.4-1.56-3.42-1.29-6.14,2.87-29.24,58.57-67.15,83.7-59.14,1.67.54,5.8,2.11,9.8.37Z" fill="#1e0d82"/><path d="M567.24,450C534,450,507,477.74,507,512s27,62,60.27,62,60.27-27.78,60.27-62S600.52,450,567.24,450Zm0,102c-21.46,0-38.85-17.9-38.85-40s17.39-40,38.85-40,38.84,17.9,38.84,40S588.69,552,567.24,552Z" fill="#09f"/><path d="M792.24,450C759,450,732,477.74,732,512s27,62,60.27,62,60.27-27.78,60.27-62S825.52,450,792.24,450Zm0,102c-21.46,0-38.85-17.9-38.85-40s17.39-40,38.85-40,38.84,17.9,38.84,40S813.69,552,792.24,552Z" fill="#09f"/><path d="M181.77,448.33a26.85,26.85,0,0,1,13.14,15.56q3.72,10.64,3.72,29.47,0,19.59-3.65,31t-13.13,16.85q-9.49,5.47-27.11,5.47H120V443.39h34.78Q172.35,443.39,181.77,448.33Zm-12.38,76.16q4.79-3.94,6.23-11.32t1.44-21q0-12.15-1.52-18.38a14.26,14.26,0,0,0-6.22-9.18q-4.71-3-14.58-3H140.92v66.82h13.82Q164.61,528.44,169.39,524.49Z" fill="#170e77"/><path d="M228.09,539.52q-7.91-9-7.9-29,0-21,8.28-31.29t25.74-10.33q16.1,0,24.37,8.59t8.28,25.74l-1.52,14.12H240.69a19.06,19.06,0,0,0,1.9,8.12,8.68,8.68,0,0,0,5.17,3.95,34,34,0,0,0,9.94,1.14q5,0,12-.3t10.18-.61l4.25-.45.3,15q-17.16,4.24-30.68,4.25Q236,548.48,228.09,539.52Zm38.72-37.66q0-9.11-2.8-12.68t-9.95-3.57q-7.29,0-10.33,3.72t-3.19,12.53Z" fill="#170e77"/><path d="M305.39,523.58q0-11.85,6.3-17.09T332,500.34l16.25-1.21v-4.71q0-4.56-2-6.38c-1.36-1.21-3.67-1.82-6.91-1.82s-7.95.13-13.82.38-10.78.53-14.73.83l-.6-14.12a119.46,119.46,0,0,1,31-4.41q14.58,0,21,6.08t6.45,19.44V526c.21,2.53.63,4.25,1.29,5.16a6,6,0,0,0,3.73,2L373,548.48a58.37,58.37,0,0,1-12.53-1.06,26.47,26.47,0,0,1-9.19-4.25,51.23,51.23,0,0,1-22.32,5.31Q305.38,548.48,305.39,523.58Zm40.55,6.53,2.27-.61V513.25l-13.82,1.21q-8.5.76-8.5,9.12t7.44,8.35A49.44,49.44,0,0,0,345.94,530.11Z" fill="#170e77"/><path d="M397.87,440.35h20.35V546.66H397.87Z" fill="#170e77"/><path d="M172.27,438.83a26.85,26.85,0,0,1,13.14,15.56q3.72,10.64,3.72,29.47,0,19.59-3.65,31t-13.13,16.85q-9.49,5.47-27.11,5.47H110.46V433.89h34.78Q162.85,433.89,172.27,438.83ZM159.89,515q4.79-3.94,6.23-11.32t1.44-21q0-12.15-1.52-18.38a14.26,14.26,0,0,0-6.22-9.18q-4.71-3-14.58-3H131.42v66.82h13.82Q155.11,518.94,159.89,515Z" fill="#09f"/><path d="M218.59,530q-7.91-9-7.9-29,0-21,8.28-31.29t25.74-10.33q16.1,0,24.37,8.59t8.28,25.74l-1.52,14.12H231.19a19.06,19.06,0,0,0,1.9,8.12,8.68,8.68,0,0,0,5.17,3.95,34,34,0,0,0,9.94,1.14q5,0,12-.3t10.18-.61l4.25-.45.3,15Q257.77,539,244.25,539,226.49,539,218.59,530Zm38.72-37.66q0-9.11-2.8-12.68t-9.95-3.57q-7.29,0-10.33,3.72T231,492.36Z" fill="#09f"/><path d="M295.89,514.08q0-11.85,6.3-17.09t20.27-6.15l16.25-1.21v-4.71q0-4.56-2-6.38c-1.36-1.21-3.67-1.82-6.91-1.82s-7.95.13-13.82.38-10.78.53-14.73.83l-.6-14.12a119.46,119.46,0,0,1,31-4.41q14.58,0,21,6.08t6.45,19.44v31.59c.21,2.53.63,4.25,1.29,5.16a6,6,0,0,0,3.73,2L363.47,539a58.37,58.37,0,0,1-12.53-1.06,26.47,26.47,0,0,1-9.19-4.25A51.23,51.23,0,0,1,319.43,539Q295.88,539,295.89,514.08Zm40.55,6.53,2.27-.61V503.75L324.89,505q-8.5.77-8.5,9.12t7.44,8.35A49.44,49.44,0,0,0,336.44,520.61Z" fill="#09f"/><path d="M388.37,430.85h20.35V537.16H388.37Z" fill="#09f"/></svg>